<svg xmlns="http://www.w3.org/2000/svg" xmlns:xlink="http://www.w3.org/1999/xlink"><symbol id="instagram-icon" viewBox="0 0 16 16">
<path d="M11.5844 0H4.4153C1.98071 0 0 1.9808 0 4.4154V11.5845C0 14.0192 1.98071 15.9999 4.4153 15.9999H11.5844C14.0192 15.9999 15.9999 14.0191 15.9999 11.5845V4.4154C16 1.9808 14.0192 0 11.5844 0ZM14.5804 11.5845C14.5804 13.2364 13.2364 14.5803 11.5845 14.5803H4.4153C2.76347 14.5804 1.41959 13.2364 1.41959 11.5845V4.4154C1.41959 2.76356 2.76347 1.41959 4.4153 1.41959H11.5844C13.2363 1.41959 14.5803 2.76356 14.5803 4.4154V11.5845H14.5804Z"/>
<path d="M7.99996 3.87744C5.72663 3.87744 3.87719 5.72688 3.87719 8.00021C3.87719 10.2734 5.72663 12.1228 7.99996 12.1228C10.2733 12.1228 12.1227 10.2734 12.1227 8.00021C12.1227 5.72688 10.2733 3.87744 7.99996 3.87744ZM7.99996 10.7031C6.50949 10.7031 5.29678 9.49059 5.29678 8.00012C5.29678 6.50955 6.5094 5.29694 7.99996 5.29694C9.49053 5.29694 10.7031 6.50955 10.7031 8.00012C10.7031 9.49059 9.49044 10.7031 7.99996 10.7031Z"/>
<path d="M12.2956 2.67358C12.0221 2.67358 11.7534 2.78431 11.5603 2.97832C11.3662 3.17139 11.2546 3.44016 11.2546 3.71462C11.2546 3.98822 11.3663 4.2569 11.5603 4.45091C11.7533 4.64397 12.0221 4.75565 12.2956 4.75565C12.5701 4.75565 12.8379 4.64397 13.0319 4.45091C13.2259 4.2569 13.3366 3.98812 13.3366 3.71462C13.3366 3.44016 13.2259 3.17139 13.0319 2.97832C12.8388 2.78431 12.5701 2.67358 12.2956 2.67358Z"/>
</symbol><symbol id="phone-icon" viewBox="0 0 16 16">
<path d="M14.7162 10.5022C13.7366 10.5022 12.7747 10.349 11.8633 10.0478C11.4167 9.89542 10.8676 10.0352 10.595 10.3151L8.796 11.6732C6.70963 10.5595 5.42446 9.27475 4.32596 7.20404L5.64408 5.45188C5.98654 5.10988 6.10938 4.61029 5.96221 4.14154C5.65971 3.22529 5.50604 2.26392 5.50604 1.28392C5.50608 0.575958 4.93013 0 4.22221 0H1.28387C0.575958 0 0 0.575958 0 1.28387C0 9.39846 6.60158 16 14.7162 16C15.4241 16 16 15.424 16 14.7161V11.786C16 11.0781 15.424 10.5022 14.7162 10.5022Z"/>
</symbol></svg>