<svg xmlns="http://www.w3.org/2000/svg" xmlns:xlink="http://www.w3.org/1999/xlink"><symbol id="delivery-icon" viewBox="0 0 48 48">
<path d="M44.6398 21.6903L43.3968 16.7183C43.7366 16.6461 43.9916 16.3446 43.9916 15.9834V15.1817C43.9916 13.4412 42.5755 12.0252 40.8351 12.0252H35.1733V10.3716C35.1733 9.51511 34.4766 8.81836 33.6201 8.81836H4.75988C3.90338 8.81836 3.20663 9.51511 3.20663 10.3716V24C3.20663 24.4151 3.54309 24.7516 3.95822 24.7516C4.37325 24.7516 4.70981 24.4152 4.70981 24V10.3716C4.70981 10.344 4.73222 10.3215 4.75988 10.3215H33.62C33.6476 10.3215 33.67 10.344 33.67 10.3716V24.0002C33.67 24.4153 34.0065 24.7518 34.4216 24.7518C34.8367 24.7518 35.1732 24.4154 35.1732 24.0002V23.1482H44.0391C44.0398 23.1482 44.0404 23.1484 44.041 23.1484C44.0418 23.1484 44.0424 23.1483 44.0431 23.1483C45.1341 23.1491 46.0604 23.8651 46.3786 24.8519H44.0416C43.6266 24.8519 43.29 25.1883 43.29 25.6035V27.2068C43.29 28.5053 44.3464 29.5617 45.6449 29.5617H46.4967V32.8685H44.5315C43.886 31.0045 42.114 29.6618 40.0332 29.6618C37.9524 29.6618 36.1804 31.0045 35.5349 32.8685H35.173V27.2067C35.173 26.7916 34.8366 26.4551 34.4214 26.4551C34.0064 26.4551 33.6698 26.7915 33.6698 27.2067V32.8683H18.0766C17.431 31.0043 15.6591 29.6616 13.5783 29.6616C11.4975 29.6616 9.72544 31.0043 9.07997 32.8683H4.75988C4.73222 32.8683 4.70981 32.8459 4.70981 32.8183V31.1648H7.96659C8.38163 31.1648 8.71819 30.8283 8.71819 30.4132C8.71819 29.9981 8.38172 29.6616 7.96659 29.6616H0.751594C0.336563 29.6616 0 29.9981 0 30.4132C0 30.8283 0.336469 31.1648 0.751594 31.1648H3.20672V32.8183C3.20672 33.6748 3.90347 34.3715 4.75997 34.3715H8.81972C8.81953 34.3882 8.81841 34.4048 8.81841 34.4216C8.81841 37.0462 10.9538 39.1815 13.5783 39.1815C16.2028 39.1815 18.3382 37.0462 18.3382 34.4216C18.3382 34.4047 18.337 34.3882 18.3368 34.3715H35.2747C35.2745 34.3882 35.2733 34.4048 35.2733 34.4216C35.2733 37.0462 37.4087 39.1815 40.0332 39.1815C42.6578 39.1815 44.7931 37.0462 44.7931 34.4216C44.7931 34.4047 44.792 34.3882 44.7918 34.3715H47.2483C47.6633 34.3715 47.9999 34.035 47.9999 33.6199V25.6033C48 23.624 46.5397 21.9795 44.6398 21.6903ZM35.1733 13.5283H40.8351C41.7468 13.5283 42.4885 14.27 42.4885 15.1817V15.2318H35.1733V13.5283ZM35.1733 21.6451V16.7349H41.8516L43.0792 21.6451H35.1733ZM13.5783 37.6785C11.7825 37.6785 10.3215 36.2176 10.3215 34.4218C10.3215 32.6259 11.7825 31.165 13.5783 31.165C15.3741 31.165 16.8351 32.6259 16.8351 34.4218C16.8351 36.2176 15.3741 37.6785 13.5783 37.6785ZM40.0334 37.6785C38.2376 37.6785 36.7766 36.2176 36.7766 34.4218C36.7766 32.6259 38.2376 31.165 40.0334 31.165C41.8292 31.165 43.2902 32.6259 43.2902 34.4218C43.2902 36.2176 41.8292 37.6785 40.0334 37.6785ZM46.4969 28.0585H45.6451C45.1754 28.0585 44.7933 27.6764 44.7933 27.2067V26.3549H46.4968V28.0585H46.4969Z"/>
<path d="M13.5782 32.8684C12.7217 32.8684 12.0249 33.5652 12.0249 34.4217C12.0249 35.2782 12.7217 35.9749 13.5782 35.9749C14.4347 35.9749 15.1314 35.2782 15.1314 34.4217C15.1314 33.5652 14.4347 32.8684 13.5782 32.8684Z"/>
<path d="M40.0332 32.8684C39.1767 32.8684 38.48 33.5652 38.48 34.4217C38.48 35.2782 39.1767 35.9749 40.0332 35.9749C40.8897 35.9749 41.5865 35.2782 41.5865 34.4217C41.5865 33.5652 40.8897 32.8684 40.0332 32.8684Z"/>
<path d="M31.2152 29.6619H19.9918C19.5768 29.6619 19.2402 29.9983 19.2402 30.4135C19.2402 30.8286 19.5767 31.1651 19.9918 31.1651H31.2152C31.6302 31.1651 31.9668 30.8286 31.9668 30.4135C31.9668 29.9983 31.6303 29.6619 31.2152 29.6619Z"/>
<path d="M11.9752 26.4551H2.35511C1.94008 26.4551 1.60352 26.7915 1.60352 27.2067C1.60352 27.6218 1.93998 27.9583 2.35511 27.9583H11.9752C12.3902 27.9583 12.7268 27.6218 12.7268 27.2067C12.7268 26.7915 12.3902 26.4551 11.9752 26.4551Z"/>
<path d="M26.1348 16.2534C25.8414 15.96 25.3654 15.96 25.0719 16.2535L18.3883 22.937L14.9114 19.4601C14.6179 19.1666 14.142 19.1666 13.8486 19.4601C13.555 19.7536 13.555 20.2294 13.8486 20.523L17.8569 24.5313C18.0037 24.6781 18.196 24.7514 18.3883 24.7514C18.5806 24.7514 18.7731 24.6781 18.9197 24.5313L26.1347 17.3163C26.4282 17.0227 26.4282 16.5469 26.1348 16.2534Z"/>
</symbol><symbol id="instagram-icon" viewBox="0 0 16 16">
<path d="M11.5844 0H4.4153C1.98071 0 0 1.9808 0 4.4154V11.5845C0 14.0192 1.98071 15.9999 4.4153 15.9999H11.5844C14.0192 15.9999 15.9999 14.0191 15.9999 11.5845V4.4154C16 1.9808 14.0192 0 11.5844 0ZM14.5804 11.5845C14.5804 13.2364 13.2364 14.5803 11.5845 14.5803H4.4153C2.76347 14.5804 1.41959 13.2364 1.41959 11.5845V4.4154C1.41959 2.76356 2.76347 1.41959 4.4153 1.41959H11.5844C13.2363 1.41959 14.5803 2.76356 14.5803 4.4154V11.5845H14.5804Z"/>
<path d="M7.99996 3.87744C5.72663 3.87744 3.87719 5.72688 3.87719 8.00021C3.87719 10.2734 5.72663 12.1228 7.99996 12.1228C10.2733 12.1228 12.1227 10.2734 12.1227 8.00021C12.1227 5.72688 10.2733 3.87744 7.99996 3.87744ZM7.99996 10.7031C6.50949 10.7031 5.29678 9.49059 5.29678 8.00012C5.29678 6.50955 6.5094 5.29694 7.99996 5.29694C9.49053 5.29694 10.7031 6.50955 10.7031 8.00012C10.7031 9.49059 9.49044 10.7031 7.99996 10.7031Z"/>
<path d="M12.2956 2.67358C12.0221 2.67358 11.7534 2.78431 11.5603 2.97832C11.3662 3.17139 11.2546 3.44016 11.2546 3.71462C11.2546 3.98822 11.3663 4.2569 11.5603 4.45091C11.7533 4.64397 12.0221 4.75565 12.2956 4.75565C12.5701 4.75565 12.8379 4.64397 13.0319 4.45091C13.2259 4.2569 13.3366 3.98812 13.3366 3.71462C13.3366 3.44016 13.2259 3.17139 13.0319 2.97832C12.8388 2.78431 12.5701 2.67358 12.2956 2.67358Z"/>
</symbol><symbol id="logotype-stub" viewBox="0 0 136 72">
<rect width="136" height="72"/>
</symbol><symbol id="order-icon" viewBox="0 0 48 48">
<path d="M6.46973 19.078H13.7342C14.2519 19.078 14.6717 18.6582 14.6717 18.1405C14.6717 17.6228 14.2519 17.203 13.7342 17.203H6.46973C5.95204 17.203 5.53223 17.6228 5.53223 18.1405C5.53223 18.6582 5.95195 19.078 6.46973 19.078Z"/>
<path d="M6.46973 25.5698H13.7342C14.2519 25.5698 14.6717 25.15 14.6717 24.6323C14.6717 24.1146 14.2519 23.6948 13.7342 23.6948H6.46973C5.95204 23.6948 5.53223 24.1146 5.53223 24.6323C5.53223 25.15 5.95195 25.5698 6.46973 25.5698Z"/>
<path d="M15.4694 41.2836C15.2728 40.8122 14.7183 40.5807 14.2451 40.7765C13.7732 40.9718 13.5431 41.5296 13.7388 42.0009C13.9347 42.473 14.4898 42.7032 14.9622 42.5081C15.4338 42.3134 15.6655 41.7548 15.4694 41.2836Z"/>
<path d="M47.7485 26.7768L36.5975 14.8068L40.0117 11.4006C40.6046 10.8142 40.9313 10.0317 40.9313 9.19745C40.9313 8.37479 40.6127 7.60042 40.0347 7.0172C38.8391 5.8097 36.8712 5.79414 35.6478 6.98279C35.6448 6.9857 35.6419 6.9886 35.6389 6.99151L30.9578 11.6613H29.2088V8.06101C29.2088 7.54332 28.789 7.12351 28.2713 7.12351H23.307V6.35767C23.307 5.83998 22.8872 5.42017 22.3695 5.42017C21.8518 5.42017 21.432 5.83998 21.432 6.35767V7.12351H18.0072V6.35767C18.0072 5.83998 17.5874 5.42017 17.0697 5.42017C16.552 5.42017 16.1322 5.83998 16.1322 6.35767V7.12351H12.7073V6.35767C12.7073 5.83998 12.2875 5.42017 11.7698 5.42017C11.2522 5.42017 10.8323 5.83998 10.8323 6.35767V7.12351H7.40738V6.35767C7.40738 5.83998 6.98756 5.42017 6.46988 5.42017C5.95219 5.42017 5.53238 5.83998 5.53238 6.35767V7.12351H0.9375C0.419813 7.12351 0 7.54332 0 8.06101V41.6423C0 42.16 0.419813 42.5798 0.9375 42.5798H10.5068C11.0244 42.5798 11.4443 42.16 11.4443 41.6423C11.4443 41.1246 11.0244 40.7048 10.5068 40.7048H1.875V8.99851H5.53238V9.8491C5.53238 10.3668 5.95219 10.7866 6.46988 10.7866C6.98756 10.7866 7.40738 10.3668 7.40738 9.8491V8.99851H10.8323V9.8491C10.8323 10.3668 11.2521 10.7866 11.7698 10.7866C12.2874 10.7866 12.7073 10.3668 12.7073 9.8491V8.99851H16.1321V9.8491C16.1321 10.3668 16.5519 10.7866 17.0696 10.7866C17.5873 10.7866 18.0071 10.3668 18.0071 9.8491V8.99851H21.4319V9.8491C21.4319 10.3668 21.8517 10.7866 22.3694 10.7866C22.8871 10.7866 23.3069 10.3668 23.3069 9.8491V8.99851H27.3338V11.6665C25.6498 11.735 24.0416 12.4461 22.8476 13.6334L15.9485 20.5325C15.5316 20.9494 15.609 21.6635 16.1022 21.9827C16.879 22.4851 17.7498 22.8099 18.6596 22.9409C18.9629 22.9846 19.2705 23.0067 19.5805 23.0067C19.582 23.0067 19.5834 23.0066 19.5848 23.0066L18.5087 24.0803C18.4306 24.1583 18.3686 24.249 18.3228 24.347L15.3154 28.8642C15.0443 29.2713 14.9337 29.736 14.9742 30.1866H6.46988C5.95219 30.1866 5.53238 30.6064 5.53238 31.1241C5.53238 31.6418 5.95219 32.0616 6.46988 32.0616H17.0283C17.434 32.0616 17.8433 31.9263 18.1774 31.6992L22.7485 28.5932C22.8026 28.5578 22.8548 28.5159 22.9006 28.4704L25.0208 26.3552L27.3338 28.6632V40.7048H18.755C18.2373 40.7048 17.8175 41.1246 17.8175 41.6423C17.8175 42.16 18.2373 42.5798 18.755 42.5798H28.2713C28.789 42.5798 29.2088 42.16 29.2088 41.6423V30.4933C30.394 31.4776 31.8717 32.0141 33.4321 32.0141H37.1724C37.9503 32.0141 38.7045 32.3367 39.2369 32.8942L46.3797 40.4848C46.9478 41.0887 47.9999 40.6726 47.9999 39.8424V27.4158C48 27.1787 47.9101 26.9503 47.7485 26.7768ZM24.1736 14.9593C25.0817 14.0513 26.3252 13.5361 27.6094 13.5361H29.0782L23.2371 19.3631C22.6966 19.882 22.185 20.3905 21.4928 20.7114C20.4715 21.1847 19.2849 21.2603 18.2112 20.9215L24.1736 14.9593ZM36.9579 8.32407C37.447 7.85289 38.2283 7.85785 38.7026 8.33682C38.9306 8.56689 39.0562 8.87251 39.0562 9.19745C39.0562 9.52707 38.9273 9.83598 38.6903 10.0704L28.8925 19.8453L28.4204 19.3731C27.9783 18.9309 27.4204 18.6062 26.8178 18.4396L36.9579 8.32407ZM17.1235 30.1484C17.0433 30.203 16.9685 30.1967 16.8989 30.1277C16.7952 30.025 16.8478 29.9459 16.8761 29.9034L19.326 26.2236L20.7732 27.6685L17.1235 30.1484ZM22.2393 26.4817L20.4999 24.7423L22.2863 22.9599C22.4549 23.5704 22.789 24.1276 23.236 24.5745L23.6934 25.031L22.2393 26.4817ZM46.125 37.4782L40.5977 31.6044C39.7085 30.6732 38.46 30.1392 37.1724 30.1392H33.4321C32.1656 30.1392 30.9747 29.6471 30.0789 28.7537L24.5585 23.2453C23.7615 22.6477 23.9395 21.3227 24.5588 20.6938C25.2545 20.0168 26.4141 20.0182 27.0945 20.6988L31.5797 25.184C31.9405 25.5446 32.5446 25.5447 32.9056 25.184C33.2717 24.8179 33.2717 24.2243 32.9056 23.8581L30.2184 21.1709L35.2693 16.1319L46.125 27.7849V37.4782Z"/>
</symbol><symbol id="phone-icon" viewBox="0 0 16 16">
<path d="M14.7162 10.5022C13.7366 10.5022 12.7747 10.349 11.8633 10.0478C11.4167 9.89542 10.8676 10.0352 10.595 10.3151L8.796 11.6732C6.70963 10.5595 5.42446 9.27475 4.32596 7.20404L5.64408 5.45188C5.98654 5.10988 6.10938 4.61029 5.96221 4.14154C5.65971 3.22529 5.50604 2.26392 5.50604 1.28392C5.50608 0.575958 4.93013 0 4.22221 0H1.28387C0.575958 0 0 0.575958 0 1.28387C0 9.39846 6.60158 16 14.7162 16C15.4241 16 16 15.424 16 14.7161V11.786C16 11.0781 15.424 10.5022 14.7162 10.5022Z"/>
</symbol><symbol id="support-icon" viewBox="0 0 48 48">
<path d="M40.4198 16.4196C40.4198 7.35131 33.0684 0 24.0001 0C14.9318 0 7.58053 7.35131 7.58053 16.4196C5.23618 16.7115 3.01953 18.244 3.01953 21.8016V30.3763C3.01953 34.39 5.82911 35.8495 8.49274 35.8495H11.1381C11.6419 35.8495 12.0503 35.4411 12.0503 34.9373V17.2771C12.0503 16.7733 11.6419 16.3649 11.1381 16.3649H9.40494C9.40494 8.30422 15.9395 1.76967 24.0001 1.76967C32.0608 1.76967 38.5954 8.30422 38.5954 16.3649H36.8622C36.3584 16.3649 35.95 16.7733 35.95 17.2771V34.9099C35.95 35.4137 36.3584 35.8221 36.8622 35.8221H38.5954C38.3399 42.0889 35.3297 43.5576 29.3183 43.8221V43.2109C29.3183 42.2033 28.5015 41.3865 27.4939 41.3865H21.7561C20.7485 41.3865 19.9317 42.2033 19.9317 43.2109V46.1756C19.9317 47.1832 20.7485 48 21.7561 48H27.5121C28.5198 48 29.3365 47.1832 29.3365 46.1756V45.6465C35.1199 45.382 40.1187 44.187 40.4198 35.7674C42.7641 35.4755 44.9808 33.943 44.9808 30.3854V21.8107C44.9808 18.2349 42.7732 16.7115 40.4198 16.4196ZM10.2259 18.1254V33.9977H8.44713C7.09707 33.9977 4.79832 33.5234 4.79832 30.3489V21.7742C4.79832 18.6271 7.0697 18.1254 8.44713 18.1254H10.2259ZM27.5121 44.7982V46.1847H21.7561V43.2201H27.5121V44.7982ZM43.1564 30.3763C43.1564 33.5234 40.885 34.0251 39.5076 34.0251H37.7744V18.1893H39.5532C40.9032 18.1893 43.202 18.6636 43.202 21.8381L43.1564 30.3763Z"/>
</symbol><symbol id="warehouse-icon" viewBox="0 0 48 48">
<path d="M33 20H15C14.448 20 14 19.552 14 19V1C14 0.448 14.448 0 15 0H33C33.552 0 34 0.448 34 1V19C34 19.552 33.552 20 33 20ZM16 18H32V2H16V18Z"/>
<path d="M27 8H21C20.448 8 20 7.552 20 7V1C20 0.448 20.448 0 21 0H27C27.552 0 28 0.448 28 1V7C28 7.552 27.552 8 27 8ZM22 6H26V2H22V6Z"/>
<path d="M24 38H5C4.448 38 4 37.552 4 37V19C4 18.448 4.448 18 5 18H24C24.552 18 25 18.448 25 19V37C25 37.552 24.552 38 24 38ZM6 36H23V20H6V36Z"/>
<path d="M17 26H11C10.448 26 10 25.552 10 25V19C10 18.448 10.448 18 11 18H17C17.552 18 18 18.448 18 19V25C18 25.552 17.552 26 17 26ZM12 24H16V20H12V24Z"/>
<path d="M43 38H24C23.448 38 23 37.552 23 37V19C23 18.448 23.448 18 24 18H43C43.552 18 44 18.448 44 19V37C44 37.552 43.552 38 43 38ZM25 36H42V20H25V36Z"/>
<path d="M37 26H31C30.448 26 30 25.552 30 25V19C30 18.448 30.448 18 31 18H37C37.552 18 38 18.448 38 19V25C38 25.552 37.552 26 37 26ZM32 24H36V20H32V24Z"/>
<path d="M47 48H39C38.448 48 38 47.552 38 47V44H30V47C30 47.552 29.552 48 29 48H19C18.448 48 18 47.552 18 47V44H10V47C10 47.552 9.552 48 9 48H1C0.448 48 0 47.552 0 47V37C0 36.448 0.448 36 1 36H47C47.552 36 48 36.448 48 37V47C48 47.552 47.552 48 47 48ZM40 46H46V38H2V46H8V43C8 42.448 8.448 42 9 42H19C19.552 42 20 42.448 20 43V46H28V43C28 42.448 28.448 42 29 42H39C39.552 42 40 42.448 40 43V46Z"/>
</symbol></svg>