<svg width="48" height="48" viewBox="0 0 48 48" fill="none" xmlns="http://www.w3.org/2000/svg">
<path d="M44.6398 21.6903L43.3968 16.7183C43.7366 16.6461 43.9916 16.3446 43.9916 15.9834V15.1817C43.9916 13.4412 42.5755 12.0252 40.8351 12.0252H35.1733V10.3716C35.1733 9.51511 34.4766 8.81836 33.6201 8.81836H4.75988C3.90338 8.81836 3.20663 9.51511 3.20663 10.3716V24C3.20663 24.4151 3.54309 24.7516 3.95822 24.7516C4.37325 24.7516 4.70981 24.4152 4.70981 24V10.3716C4.70981 10.344 4.73222 10.3215 4.75988 10.3215H33.62C33.6476 10.3215 33.67 10.344 33.67 10.3716V24.0002C33.67 24.4153 34.0065 24.7518 34.4216 24.7518C34.8367 24.7518 35.1732 24.4154 35.1732 24.0002V23.1482H44.0391C44.0398 23.1482 44.0404 23.1484 44.041 23.1484C44.0418 23.1484 44.0424 23.1483 44.0431 23.1483C45.1341 23.1491 46.0604 23.8651 46.3786 24.8519H44.0416C43.6266 24.8519 43.29 25.1883 43.29 25.6035V27.2068C43.29 28.5053 44.3464 29.5617 45.6449 29.5617H46.4967V32.8685H44.5315C43.886 31.0045 42.114 29.6618 40.0332 29.6618C37.9524 29.6618 36.1804 31.0045 35.5349 32.8685H35.173V27.2067C35.173 26.7916 34.8366 26.4551 34.4214 26.4551C34.0064 26.4551 33.6698 26.7915 33.6698 27.2067V32.8683H18.0766C17.431 31.0043 15.6591 29.6616 13.5783 29.6616C11.4975 29.6616 9.72544 31.0043 9.07997 32.8683H4.75988C4.73222 32.8683 4.70981 32.8459 4.70981 32.8183V31.1648H7.96659C8.38163 31.1648 8.71819 30.8283 8.71819 30.4132C8.71819 29.9981 8.38172 29.6616 7.96659 29.6616H0.751594C0.336563 29.6616 0 29.9981 0 30.4132C0 30.8283 0.336469 31.1648 0.751594 31.1648H3.20672V32.8183C3.20672 33.6748 3.90347 34.3715 4.75997 34.3715H8.81972C8.81953 34.3882 8.81841 34.4048 8.81841 34.4216C8.81841 37.0462 10.9538 39.1815 13.5783 39.1815C16.2028 39.1815 18.3382 37.0462 18.3382 34.4216C18.3382 34.4047 18.337 34.3882 18.3368 34.3715H35.2747C35.2745 34.3882 35.2733 34.4048 35.2733 34.4216C35.2733 37.0462 37.4087 39.1815 40.0332 39.1815C42.6578 39.1815 44.7931 37.0462 44.7931 34.4216C44.7931 34.4047 44.792 34.3882 44.7918 34.3715H47.2483C47.6633 34.3715 47.9999 34.035 47.9999 33.6199V25.6033C48 23.624 46.5397 21.9795 44.6398 21.6903ZM35.1733 13.5283H40.8351C41.7468 13.5283 42.4885 14.27 42.4885 15.1817V15.2318H35.1733V13.5283ZM35.1733 21.6451V16.7349H41.8516L43.0792 21.6451H35.1733ZM13.5783 37.6785C11.7825 37.6785 10.3215 36.2176 10.3215 34.4218C10.3215 32.6259 11.7825 31.165 13.5783 31.165C15.3741 31.165 16.8351 32.6259 16.8351 34.4218C16.8351 36.2176 15.3741 37.6785 13.5783 37.6785ZM40.0334 37.6785C38.2376 37.6785 36.7766 36.2176 36.7766 34.4218C36.7766 32.6259 38.2376 31.165 40.0334 31.165C41.8292 31.165 43.2902 32.6259 43.2902 34.4218C43.2902 36.2176 41.8292 37.6785 40.0334 37.6785ZM46.4969 28.0585H45.6451C45.1754 28.0585 44.7933 27.6764 44.7933 27.2067V26.3549H46.4968V28.0585H46.4969Z"/>
<path d="M13.5782 32.8684C12.7217 32.8684 12.0249 33.5652 12.0249 34.4217C12.0249 35.2782 12.7217 35.9749 13.5782 35.9749C14.4347 35.9749 15.1314 35.2782 15.1314 34.4217C15.1314 33.5652 14.4347 32.8684 13.5782 32.8684Z"/>
<path d="M40.0332 32.8684C39.1767 32.8684 38.48 33.5652 38.48 34.4217C38.48 35.2782 39.1767 35.9749 40.0332 35.9749C40.8897 35.9749 41.5865 35.2782 41.5865 34.4217C41.5865 33.5652 40.8897 32.8684 40.0332 32.8684Z"/>
<path d="M31.2152 29.6619H19.9918C19.5768 29.6619 19.2402 29.9983 19.2402 30.4135C19.2402 30.8286 19.5767 31.1651 19.9918 31.1651H31.2152C31.6302 31.1651 31.9668 30.8286 31.9668 30.4135C31.9668 29.9983 31.6303 29.6619 31.2152 29.6619Z"/>
<path d="M11.9752 26.4551H2.35511C1.94008 26.4551 1.60352 26.7915 1.60352 27.2067C1.60352 27.6218 1.93998 27.9583 2.35511 27.9583H11.9752C12.3902 27.9583 12.7268 27.6218 12.7268 27.2067C12.7268 26.7915 12.3902 26.4551 11.9752 26.4551Z"/>
<path d="M26.1348 16.2534C25.8414 15.96 25.3654 15.96 25.0719 16.2535L18.3883 22.937L14.9114 19.4601C14.6179 19.1666 14.142 19.1666 13.8486 19.4601C13.555 19.7536 13.555 20.2294 13.8486 20.523L17.8569 24.5313C18.0037 24.6781 18.196 24.7514 18.3883 24.7514C18.5806 24.7514 18.7731 24.6781 18.9197 24.5313L26.1347 17.3163C26.4282 17.0227 26.4282 16.5469 26.1348 16.2534Z"/>
</svg>
