<svg width="48" height="48" viewBox="0 0 48 48" fill="none" xmlns="http://www.w3.org/2000/svg">
<path d="M6.46973 19.078H13.7342C14.2519 19.078 14.6717 18.6582 14.6717 18.1405C14.6717 17.6228 14.2519 17.203 13.7342 17.203H6.46973C5.95204 17.203 5.53223 17.6228 5.53223 18.1405C5.53223 18.6582 5.95195 19.078 6.46973 19.078Z"/>
<path d="M6.46973 25.5698H13.7342C14.2519 25.5698 14.6717 25.15 14.6717 24.6323C14.6717 24.1146 14.2519 23.6948 13.7342 23.6948H6.46973C5.95204 23.6948 5.53223 24.1146 5.53223 24.6323C5.53223 25.15 5.95195 25.5698 6.46973 25.5698Z"/>
<path d="M15.4694 41.2836C15.2728 40.8122 14.7183 40.5807 14.2451 40.7765C13.7732 40.9718 13.5431 41.5296 13.7388 42.0009C13.9347 42.473 14.4898 42.7032 14.9622 42.5081C15.4338 42.3134 15.6655 41.7548 15.4694 41.2836Z"/>
<path d="M47.7485 26.7768L36.5975 14.8068L40.0117 11.4006C40.6046 10.8142 40.9313 10.0317 40.9313 9.19745C40.9313 8.37479 40.6127 7.60042 40.0347 7.0172C38.8391 5.8097 36.8712 5.79414 35.6478 6.98279C35.6448 6.9857 35.6419 6.9886 35.6389 6.99151L30.9578 11.6613H29.2088V8.06101C29.2088 7.54332 28.789 7.12351 28.2713 7.12351H23.307V6.35767C23.307 5.83998 22.8872 5.42017 22.3695 5.42017C21.8518 5.42017 21.432 5.83998 21.432 6.35767V7.12351H18.0072V6.35767C18.0072 5.83998 17.5874 5.42017 17.0697 5.42017C16.552 5.42017 16.1322 5.83998 16.1322 6.35767V7.12351H12.7073V6.35767C12.7073 5.83998 12.2875 5.42017 11.7698 5.42017C11.2522 5.42017 10.8323 5.83998 10.8323 6.35767V7.12351H7.40738V6.35767C7.40738 5.83998 6.98756 5.42017 6.46988 5.42017C5.95219 5.42017 5.53238 5.83998 5.53238 6.35767V7.12351H0.9375C0.419813 7.12351 0 7.54332 0 8.06101V41.6423C0 42.16 0.419813 42.5798 0.9375 42.5798H10.5068C11.0244 42.5798 11.4443 42.16 11.4443 41.6423C11.4443 41.1246 11.0244 40.7048 10.5068 40.7048H1.875V8.99851H5.53238V9.8491C5.53238 10.3668 5.95219 10.7866 6.46988 10.7866C6.98756 10.7866 7.40738 10.3668 7.40738 9.8491V8.99851H10.8323V9.8491C10.8323 10.3668 11.2521 10.7866 11.7698 10.7866C12.2874 10.7866 12.7073 10.3668 12.7073 9.8491V8.99851H16.1321V9.8491C16.1321 10.3668 16.5519 10.7866 17.0696 10.7866C17.5873 10.7866 18.0071 10.3668 18.0071 9.8491V8.99851H21.4319V9.8491C21.4319 10.3668 21.8517 10.7866 22.3694 10.7866C22.8871 10.7866 23.3069 10.3668 23.3069 9.8491V8.99851H27.3338V11.6665C25.6498 11.735 24.0416 12.4461 22.8476 13.6334L15.9485 20.5325C15.5316 20.9494 15.609 21.6635 16.1022 21.9827C16.879 22.4851 17.7498 22.8099 18.6596 22.9409C18.9629 22.9846 19.2705 23.0067 19.5805 23.0067C19.582 23.0067 19.5834 23.0066 19.5848 23.0066L18.5087 24.0803C18.4306 24.1583 18.3686 24.249 18.3228 24.347L15.3154 28.8642C15.0443 29.2713 14.9337 29.736 14.9742 30.1866H6.46988C5.95219 30.1866 5.53238 30.6064 5.53238 31.1241C5.53238 31.6418 5.95219 32.0616 6.46988 32.0616H17.0283C17.434 32.0616 17.8433 31.9263 18.1774 31.6992L22.7485 28.5932C22.8026 28.5578 22.8548 28.5159 22.9006 28.4704L25.0208 26.3552L27.3338 28.6632V40.7048H18.755C18.2373 40.7048 17.8175 41.1246 17.8175 41.6423C17.8175 42.16 18.2373 42.5798 18.755 42.5798H28.2713C28.789 42.5798 29.2088 42.16 29.2088 41.6423V30.4933C30.394 31.4776 31.8717 32.0141 33.4321 32.0141H37.1724C37.9503 32.0141 38.7045 32.3367 39.2369 32.8942L46.3797 40.4848C46.9478 41.0887 47.9999 40.6726 47.9999 39.8424V27.4158C48 27.1787 47.9101 26.9503 47.7485 26.7768ZM24.1736 14.9593C25.0817 14.0513 26.3252 13.5361 27.6094 13.5361H29.0782L23.2371 19.3631C22.6966 19.882 22.185 20.3905 21.4928 20.7114C20.4715 21.1847 19.2849 21.2603 18.2112 20.9215L24.1736 14.9593ZM36.9579 8.32407C37.447 7.85289 38.2283 7.85785 38.7026 8.33682C38.9306 8.56689 39.0562 8.87251 39.0562 9.19745C39.0562 9.52707 38.9273 9.83598 38.6903 10.0704L28.8925 19.8453L28.4204 19.3731C27.9783 18.9309 27.4204 18.6062 26.8178 18.4396L36.9579 8.32407ZM17.1235 30.1484C17.0433 30.203 16.9685 30.1967 16.8989 30.1277C16.7952 30.025 16.8478 29.9459 16.8761 29.9034L19.326 26.2236L20.7732 27.6685L17.1235 30.1484ZM22.2393 26.4817L20.4999 24.7423L22.2863 22.9599C22.4549 23.5704 22.789 24.1276 23.236 24.5745L23.6934 25.031L22.2393 26.4817ZM46.125 37.4782L40.5977 31.6044C39.7085 30.6732 38.46 30.1392 37.1724 30.1392H33.4321C32.1656 30.1392 30.9747 29.6471 30.0789 28.7537L24.5585 23.2453C23.7615 22.6477 23.9395 21.3227 24.5588 20.6938C25.2545 20.0168 26.4141 20.0182 27.0945 20.6988L31.5797 25.184C31.9405 25.5446 32.5446 25.5447 32.9056 25.184C33.2717 24.8179 33.2717 24.2243 32.9056 23.8581L30.2184 21.1709L35.2693 16.1319L46.125 27.7849V37.4782Z"/>
</svg>
