<svg width="48" height="48" viewBox="0 0 48 48" fill="none" xmlns="http://www.w3.org/2000/svg">
<path d="M40.4198 16.4196C40.4198 7.35131 33.0684 0 24.0001 0C14.9318 0 7.58053 7.35131 7.58053 16.4196C5.23618 16.7115 3.01953 18.244 3.01953 21.8016V30.3763C3.01953 34.39 5.82911 35.8495 8.49274 35.8495H11.1381C11.6419 35.8495 12.0503 35.4411 12.0503 34.9373V17.2771C12.0503 16.7733 11.6419 16.3649 11.1381 16.3649H9.40494C9.40494 8.30422 15.9395 1.76967 24.0001 1.76967C32.0608 1.76967 38.5954 8.30422 38.5954 16.3649H36.8622C36.3584 16.3649 35.95 16.7733 35.95 17.2771V34.9099C35.95 35.4137 36.3584 35.8221 36.8622 35.8221H38.5954C38.3399 42.0889 35.3297 43.5576 29.3183 43.8221V43.2109C29.3183 42.2033 28.5015 41.3865 27.4939 41.3865H21.7561C20.7485 41.3865 19.9317 42.2033 19.9317 43.2109V46.1756C19.9317 47.1832 20.7485 48 21.7561 48H27.5121C28.5198 48 29.3365 47.1832 29.3365 46.1756V45.6465C35.1199 45.382 40.1187 44.187 40.4198 35.7674C42.7641 35.4755 44.9808 33.943 44.9808 30.3854V21.8107C44.9808 18.2349 42.7732 16.7115 40.4198 16.4196ZM10.2259 18.1254V33.9977H8.44713C7.09707 33.9977 4.79832 33.5234 4.79832 30.3489V21.7742C4.79832 18.6271 7.0697 18.1254 8.44713 18.1254H10.2259ZM27.5121 44.7982V46.1847H21.7561V43.2201H27.5121V44.7982ZM43.1564 30.3763C43.1564 33.5234 40.885 34.0251 39.5076 34.0251H37.7744V18.1893H39.5532C40.9032 18.1893 43.202 18.6636 43.202 21.8381L43.1564 30.3763Z"/>
</svg>
